<svg width="39" height="31" viewBox="0 0 39 31" fill="none" xmlns="http://www.w3.org/2000/svg">
<path d="M38.4188 0.931528C38.409 0.769597 38.3401 0.616899 38.2252 0.502337C38.1104 0.387775 37.9575 0.319296 37.7955 0.309863C29.4652 -0.18747 22.8026 2.31577 19.9711 6.98904C18.0415 10.1753 18.1194 13.9384 20.1767 17.6336C18.7248 19.2285 17.7661 21.2098 17.4165 23.338L13.5224 19.4439C14.953 16.7915 14.9829 14.0843 13.592 11.7866C11.5331 8.38654 6.70893 6.56962 0.682923 6.92273C0.521821 6.9329 0.369961 7.00148 0.255818 7.11563C0.141674 7.22977 0.0730868 7.38163 0.0629151 7.54273C-0.290191 13.5654 1.52673 18.3896 4.92683 20.4485C6.01808 21.1184 7.27355 21.473 8.55404 21.473C9.96745 21.449 11.3526 21.0729 12.5841 20.3789L17.2607 25.0604V30.0885C17.2607 30.2643 17.3305 30.433 17.4549 30.5574C17.5792 30.6817 17.7479 30.7516 17.9238 30.7516C18.0996 30.7516 18.2683 30.6817 18.3927 30.5574C18.517 30.433 18.5869 30.2643 18.5869 30.0885V25.1997C18.5807 22.7515 19.484 20.3884 21.1216 18.5686C23.0264 19.6229 24.9461 20.1534 26.7978 20.1534C28.5422 20.1537 30.2527 19.6712 31.7397 18.7592C36.4113 15.9261 38.9095 9.2635 38.4188 0.931528ZM5.61314 19.3129C2.75017 17.5822 1.18026 13.4593 1.35929 8.21911C6.59952 8.04007 10.7224 9.60998 12.4531 12.473C13.5274 14.2484 13.5456 16.3472 12.5294 18.4559L7.78151 13.7047C7.65537 13.5904 7.49011 13.529 7.31995 13.5332C7.14978 13.5374 6.98774 13.6068 6.86738 13.7272C6.74702 13.8475 6.67755 14.0096 6.67336 14.1798C6.66917 14.3499 6.73058 14.5152 6.84487 14.6413L11.5977 19.3942C9.48736 20.4104 7.38862 20.3921 5.61314 19.3129ZM31.0517 17.622C28.391 19.2334 25.2346 19.2118 22.0864 17.5806L31.6551 8.01023C31.7743 7.88496 31.8399 7.71808 31.8379 7.54516C31.8358 7.37225 31.7663 7.20697 31.6441 7.08459C31.5219 6.9622 31.3568 6.89238 31.1839 6.89001C31.0109 6.88765 30.844 6.95293 30.7185 7.07193L21.1481 16.6423C19.5169 13.4925 19.4904 10.3427 21.1067 7.67701C23.6116 3.53258 29.5746 1.28961 37.1258 1.60293C37.4408 9.15409 35.1895 15.1171 31.0517 17.622Z" fill="black"/>
</svg>
